<svg width="68" height="68" viewBox="0 0 68 68" fill="none" xmlns="http://www.w3.org/2000/svg">
<path d="M16.405 37.2002L39.7035 57.5832C42.449 59.9887 46.75 58.0337 46.75 54.383V13.617C46.7507 12.7999 46.5159 12 46.0736 11.313C45.6314 10.626 45.0005 10.081 44.2565 9.74333C43.5125 9.40564 42.687 9.28956 41.8787 9.409C41.0705 9.52843 40.3138 9.87831 39.6992 10.4167L16.4092 30.7997C15.9527 31.1987 15.5869 31.6906 15.3362 32.2426C15.0855 32.7945 14.9558 33.3938 14.9558 34C14.9558 34.6062 15.0855 35.2054 15.3362 35.7574C15.5869 36.3094 15.9527 36.8013 16.4092 37.2002H16.405Z" fill="white"/>
</svg>
