<svg width="68" height="68" viewBox="0 0 68 68" fill="none" xmlns="http://www.w3.org/2000/svg">
<path d="M51.595 37.2002L28.2965 57.5832C25.551 59.9887 21.25 58.0337 21.25 54.383V13.617C21.2493 12.7999 21.4841 12 21.9263 11.313C22.3686 10.626 22.9995 10.081 23.7434 9.74333C24.4874 9.40564 25.313 9.28956 26.1213 9.409C26.9295 9.52843 27.6862 9.87831 28.3008 10.4167L51.5908 30.7997C52.0472 31.1987 52.4131 31.6906 52.6638 32.2426C52.9145 32.7945 53.0442 33.3938 53.0442 34C53.0442 34.6062 52.9145 35.2054 52.6638 35.7574C52.4131 36.3094 52.0472 36.8013 51.5908 37.2002H51.595Z" fill="white"/>
</svg>
