<svg width="319" height="66" viewBox="0 0 319 66" fill="none" xmlns="http://www.w3.org/2000/svg">
<path d="M28.598 5.574C10.986 5.574 0.996 15.86 0.996 33.102V61H40.512C58.124 61 68.04 50.714 68.04 33.472V5.574H28.598ZM59.382 33.102C59.382 47.236 54.35 52.194 40.216 52.194H9.728V33.472C9.728 19.412 14.834 14.306 28.894 14.306H59.382V33.102ZM166.582 5.574H144.382C138.61 5.574 130.47 6.98 125.66 11.272V5.574H103.682C86.884 5.574 76.08 15.712 76.08 30.586V61H84.886V33.472C84.886 19.338 89.918 14.306 103.904 14.306H116.854V60.926H125.66V33.472C125.66 19.412 130.766 14.306 144.826 14.306H157.776V61H166.582V5.574ZM242.574 5.574H233.916V47.532L175.456 0.837998V61H184.262V19.042L242.574 65.736V5.574ZM318.151 52.194H259.839V37.69H318.151V28.884H260.061C261.393 18.376 266.351 14.306 279.005 14.306H318.151V5.574H278.709C261.023 5.574 251.107 15.934 251.107 33.102V61H318.151V52.194Z" fill="white"/>
</svg>
