<svg width="215" height="43" viewBox="0 0 215 43" fill="none" xmlns="http://www.w3.org/2000/svg">
<g clip-path="url(#clip0_13_1834)">
<path d="M13.1505 18.0681L21.502 9.72009L29.8569 18.0749L34.7136 13.2148L21.502 0L8.29034 13.2114L13.1505 18.0681Z" fill="white"/>
<path d="M-0.00177002 21.5007L4.85657 16.6425L9.71492 21.5007L4.85657 26.359L-0.00177002 21.5007Z" fill="white"/>
<path d="M13.1505 24.9319L21.502 33.2833L29.8569 24.9285L34.7171 29.7818L34.7137 29.7852L21.502 43L8.29036 29.792L8.28357 29.7852L13.1505 24.9319Z" fill="white"/>
<path d="M33.2809 21.502L38.1392 16.6437L42.9976 21.502L38.1392 26.3602L33.2809 21.502Z" fill="white"/>
<path d="M26.43 21.4983L21.502 16.567L17.8577 20.2111L17.4366 20.6289L16.5739 21.4915L16.5671 21.4983L16.5739 21.5085L21.502 26.4331L26.43 21.5017L26.4334 21.4983H26.43Z" fill="white"/>
<path d="M50.5778 10.4197H61.1471C63.7691 10.4197 65.7525 11.099 67.0975 12.4575C67.6042 12.9593 68.0036 13.5589 68.2716 14.2197C68.5396 14.8806 68.6705 15.5891 68.6564 16.3021V16.3666C68.6655 16.9507 68.5842 17.5327 68.4152 18.0919C68.2648 18.5733 68.0463 19.0307 67.7665 19.4504C67.5057 19.8461 67.1901 20.2029 66.8292 20.51C66.4765 20.8135 66.0902 21.0756 65.6778 21.2912C66.867 21.7054 67.9364 22.4051 68.7922 23.3289C69.5485 24.1893 69.9266 25.378 69.9266 26.895V26.9595C69.9481 27.9069 69.7419 28.8457 69.3255 29.6969C68.9219 30.4812 68.3303 31.1533 67.6035 31.6531C66.7819 32.204 65.867 32.601 64.9035 32.8248C63.7587 33.0963 62.5851 33.2275 61.4087 33.2154H50.5778V10.4197ZM60.0875 19.6372C61.0019 19.6814 61.9119 19.4846 62.7264 19.0666C63.0441 18.8811 63.3034 18.6103 63.4751 18.285C63.6467 17.9597 63.7239 17.5928 63.6978 17.2258V17.1613C63.7146 16.8232 63.6459 16.4864 63.4981 16.1818C63.3503 15.8773 63.1281 15.615 62.8521 15.419C62.2883 15.0183 61.4743 14.8179 60.4101 14.8179H55.4651V19.6372H60.0875ZM61.4222 28.8241C62.3333 28.8751 63.2401 28.6666 64.0374 28.2229C64.348 28.0234 64.5994 27.7442 64.7655 27.4145C64.9315 27.0847 65.0062 26.7165 64.9816 26.3482V26.2837C64.9938 25.9335 64.92 25.5857 64.7667 25.2708C64.6133 24.9558 64.3851 24.6832 64.1019 24.4768C63.5178 24.024 62.5736 23.7976 61.2694 23.7976H55.4651V28.8241H61.4222Z" fill="white"/>
<path d="M76.2234 10.4197H81.2397V33.2222H76.2234V10.4197Z" fill="white"/>
<path d="M88.8304 10.4197H93.4562L104.148 24.4531V10.4197H109.1V33.2222H104.83L93.7891 18.727V33.2222H88.8304V10.4197Z" fill="white"/>
<path d="M124.288 10.2567H128.907L138.678 33.2222H133.441L131.356 28.1074H121.714L119.628 33.2222H114.513L124.288 10.2567ZM129.566 23.6787L126.53 16.2817L123.507 23.6787H129.566Z" fill="white"/>
<path d="M144.102 10.4197H148.728L159.413 24.4531V10.4197H164.364V33.2222H160.095L149.054 18.727V33.2222H144.102V10.4197Z" fill="white"/>
<path d="M182.419 33.623C180.82 33.6366 179.235 33.327 177.759 32.7128C176.37 32.139 175.109 31.2929 174.052 30.2243C172.994 29.1557 172.161 27.8863 171.602 26.4908C171.012 25.0311 170.713 23.4701 170.722 21.8957V21.8312C170.696 18.7277 171.89 15.7383 174.047 13.5069C175.109 12.417 176.379 11.5529 177.783 10.9665C179.31 10.334 180.95 10.0186 182.603 10.0394C183.58 10.0321 184.556 10.1196 185.517 10.3009C186.338 10.4563 187.142 10.6964 187.914 11.0175C188.615 11.3125 189.282 11.6838 189.901 12.1247C190.506 12.5546 191.074 13.034 191.599 13.5579L188.41 17.2394C187.595 16.4876 186.681 15.8511 185.693 15.3477C184.723 14.8837 183.658 14.6511 182.582 14.6685C181.687 14.6589 180.8 14.8399 179.98 15.1994C179.161 15.559 178.427 16.0888 177.827 16.7538C177.233 17.417 176.768 18.1852 176.455 19.0191C176.128 19.9002 175.963 20.8335 175.97 21.7734V21.838C175.966 22.7765 176.131 23.7082 176.455 24.5889C176.764 25.4257 177.224 26.1983 177.814 26.8678C178.408 27.541 179.14 28.0786 179.961 28.4443C180.781 28.8099 181.671 28.995 182.569 28.9871C183.712 29.0231 184.847 28.777 185.873 28.2705C186.85 27.7381 187.753 27.0805 188.56 26.3142L191.752 29.5407C191.189 30.1525 190.579 30.7202 189.928 31.2388C189.289 31.744 188.596 32.1758 187.86 32.526C187.076 32.8949 186.251 33.1675 185.401 33.3377C184.42 33.5345 183.42 33.6301 182.419 33.623Z" fill="white"/>
<path d="M197.672 10.4197H214.834V14.8824H202.607V19.5081H213.373V23.9708H202.624V28.7595H215.003V33.2222H197.682L197.672 10.4197Z" fill="white"/>
</g>
<defs>
<clipPath id="clip0_13_1834">
<rect width="215" height="43" fill="white"/>
</clipPath>
</defs>
</svg>
