<svg width="170" height="21" viewBox="0 0 170 21" fill="none" xmlns="http://www.w3.org/2000/svg">
<path d="M12.636 9.92C13.7747 10.1627 14.6893 10.732 15.38 11.628C16.0707 12.5053 16.416 13.5133 16.416 14.652C16.416 16.2947 15.8373 17.6013 14.68 18.572C13.5413 19.524 11.9453 20 9.892 20H0.736V0.343999H9.584C11.5813 0.343999 13.14 0.801332 14.26 1.716C15.3987 2.63067 15.968 3.872 15.968 5.44C15.968 6.59733 15.66 7.55867 15.044 8.324C14.4467 9.08933 13.644 9.62133 12.636 9.92ZM5.524 8.296H8.66C9.444 8.296 10.0413 8.128 10.452 7.792C10.8813 7.43733 11.096 6.924 11.096 6.252C11.096 5.58 10.8813 5.06667 10.452 4.712C10.0413 4.35733 9.444 4.18 8.66 4.18H5.524V8.296ZM9.052 16.136C9.85467 16.136 10.4707 15.9587 10.9 15.604C11.348 15.2307 11.572 14.6987 11.572 14.008C11.572 13.3173 11.3387 12.776 10.872 12.384C10.424 11.992 9.79867 11.796 8.996 11.796H5.524V16.136H9.052ZM23.981 0.343999V20H19.193V0.343999H23.981ZM41.5908 0.343999V4.18H36.3828V20H31.5948V4.18H26.3868V0.343999H41.5908ZM62.7234 0.343999V4.18H54.7154V8.324H60.7074V12.048H54.7154V20H49.9274V0.343999H62.7234ZM70.0279 0.343999V20H65.2399V0.343999H70.0279ZM91.0817 20H86.2937L78.2857 7.876V20H73.4977V0.343999H78.2857L86.2937 12.524V0.343999H91.0817V20ZM106.788 16.528H99.4524L98.2764 20H93.2644L100.376 0.343999H105.92L113.032 20H107.964L106.788 16.528ZM105.556 12.832L103.12 5.636L100.712 12.832H105.556ZM132.781 20H127.993L119.985 7.876V20H115.197V0.343999H119.985L127.993 12.524V0.343999H132.781V20ZM135.44 10.144C135.44 8.20267 135.86 6.476 136.7 4.964C137.54 3.43333 138.706 2.248 140.2 1.408C141.712 0.549332 143.42 0.119999 145.324 0.119999C147.657 0.119999 149.654 0.735999 151.316 1.968C152.977 3.2 154.088 4.88 154.648 7.008H149.384C148.992 6.18667 148.432 5.56133 147.704 5.132C146.994 4.70267 146.182 4.488 145.268 4.488C143.793 4.488 142.598 5.00133 141.684 6.028C140.769 7.05467 140.312 8.42667 140.312 10.144C140.312 11.8613 140.769 13.2333 141.684 14.26C142.598 15.2867 143.793 15.8 145.268 15.8C146.182 15.8 146.994 15.5853 147.704 15.156C148.432 14.7267 148.992 14.1013 149.384 13.28H154.648C154.088 15.408 152.977 17.088 151.316 18.32C149.654 19.5333 147.657 20.14 145.324 20.14C143.42 20.14 141.712 19.72 140.2 18.88C138.706 18.0213 137.54 16.836 136.7 15.324C135.86 13.812 135.44 12.0853 135.44 10.144ZM162.368 4.18V8.156H168.78V11.852H162.368V16.164H169.62V20H157.58V0.343999H169.62V4.18H162.368Z" fill="white"/>
</svg>
