<svg width="196" height="62" viewBox="0 0 196 62" fill="none" xmlns="http://www.w3.org/2000/svg">
<path d="M144.952 24.624V44H142.404V29.552L135.964 44H134.172L127.704 29.524V44H125.156V24.624H127.9L135.068 40.64L142.236 24.624H144.952ZM151.821 26.556V33.08H158.933V35.18H151.821V41.9H159.773V44H149.273V24.456H159.773V26.556H151.821ZM175.641 24.484V26.556H170.321V44H167.773V26.556H162.425V24.484H175.641ZM190.313 39.66H181.801L180.233 44H177.545L184.601 24.596H187.541L194.569 44H191.881L190.313 39.66ZM189.585 37.588L186.057 27.732L182.529 37.588H189.585Z" fill="white"/>
<g clip-path="url(#clip0_14_1888)">
<path d="M28.5115 40.8865C28.5115 44.4507 29.3233 47.1868 30.3853 48.8422C31.7773 51.0106 33.8533 51.931 35.9698 51.931C38.6994 51.931 41.1968 51.2784 46.0092 44.8675C49.8657 39.7291 54.4078 32.5166 57.4645 27.9949L62.6411 20.3343C66.237 15.0142 70.3991 9.10019 75.1714 5.09142C79.0684 1.81927 83.2699 0.00158691 87.4994 0.00158691C94.6006 0.00158691 101.364 3.965 106.541 11.3984C112.206 19.5391 114.956 29.7934 114.956 40.3751C114.956 46.666 113.669 51.2882 111.478 54.94C109.362 58.4714 105.237 62 98.2975 62V51.9294C104.239 51.9294 105.722 46.6707 105.722 40.6526C105.722 32.0768 103.646 22.5598 99.0725 15.7594C95.8274 10.9359 91.6214 7.98862 86.994 7.98862C81.9892 7.98862 77.9618 11.6248 73.4355 18.1061C71.0291 21.5503 68.5589 25.7471 65.7851 30.4831L62.7316 35.693C56.5987 46.1694 55.0447 48.5544 51.9778 52.4909C46.6027 59.3847 42.0123 61.9984 35.9698 61.9984C28.8013 61.9984 24.2685 59.0086 21.461 54.5033C19.1695 50.8323 18.0438 46.015 18.0438 40.5264L28.5115 40.8865Z" fill="white"/>
<path d="M26.2974 12.1076C31.0965 4.98271 38.0223 0 45.9658 0C50.5659 0 55.1401 1.31136 59.9148 5.06716C65.1385 9.1725 70.706 15.9365 77.6521 27.0796L80.1425 31.0774C86.1549 40.7246 89.5754 45.6877 91.5775 48.0282C94.152 51.0337 95.9552 51.9298 98.2975 51.9298C104.239 51.9298 105.722 46.6711 105.722 40.653L114.956 40.3739C114.956 46.6648 113.669 51.287 111.478 54.9388C109.362 58.4702 105.237 61.9988 98.2975 61.9988C93.9836 61.9988 90.162 61.0964 85.9357 57.2562C82.6882 54.3089 78.8886 49.0733 75.9666 44.3666L67.2749 30.383C62.9143 23.3652 58.9125 18.1327 56.5986 15.7629C54.1078 13.2145 50.9061 10.1374 45.7969 10.1374C41.662 10.1374 38.1502 12.9322 35.2115 17.2072L26.2974 12.1076Z" fill="white"/>
<path d="M45.7969 10.1374C41.662 10.1374 38.1502 12.9322 35.2115 17.2072C31.0559 23.2479 28.5135 32.2457 28.5135 40.8864C28.5135 44.4506 29.3254 47.1868 30.3873 48.8422L21.461 54.5033C19.1695 50.8323 18.0438 46.015 18.0438 40.5263C18.0438 30.5449 20.8882 20.1416 26.2974 12.1076C31.0965 4.98271 38.0223 0 45.9658 0L45.7969 10.1374Z" fill="white"/>
</g>
<defs>
<clipPath id="clip0_14_1888">
<rect width="133" height="62" fill="white"/>
</clipPath>
</defs>
</svg>
