<svg width="28" height="28" viewBox="0 0 28 28" fill="none" xmlns="http://www.w3.org/2000/svg">
<g clip-path="url(#clip0_42_482)">
<path d="M28.0001 14.0859C28.0001 6.30535 21.7316 -0.001647 14.0001 -0.001647C6.26508 0.000103005 -0.00341797 6.30535 -0.00341797 14.0876C-0.00341797 21.1174 5.11708 26.9449 11.8091 28.0019V18.1581H8.25658V14.0876H11.8126V10.9814C11.8126 7.4516 13.9038 5.5021 17.1011 5.5021C18.6341 5.5021 20.2353 5.77685 20.2353 5.77685V9.24185H18.4696C16.7318 9.24185 16.1893 10.3286 16.1893 11.4434V14.0859H20.0708L19.4513 18.1564H16.1876V28.0001C22.8796 26.9431 28.0001 21.1156 28.0001 14.0859Z" fill="#4285F4"/>
</g>
<defs>
<clipPath id="clip0_42_482">
<rect width="28" height="28" fill="white"/>
</clipPath>
</defs>
</svg>
