<svg width="28" height="28" viewBox="0 0 28 28" fill="none" xmlns="http://www.w3.org/2000/svg">
<g clip-path="url(#clip0_42_491)">
<path d="M27.2038 11.4765C27.367 12.4162 27.4484 13.3683 27.447 14.322C27.447 18.5815 25.9245 22.183 23.275 24.6208H23.2785C20.9615 26.761 17.7765 28 14 28C10.287 28 6.72602 26.525 4.10051 23.8995C1.475 21.274 0 17.713 0 14C0 10.287 1.475 6.72602 4.10051 4.10051C6.72602 1.475 10.287 6.44824e-07 14 6.44824e-07C17.4754 -0.0407015 20.8317 1.26496 23.366 3.6435L19.369 7.6405C17.9242 6.26321 15.9959 5.50899 14 5.5405C10.3478 5.5405 7.245 8.0045 6.139 11.3225C5.55259 13.0611 5.55259 14.9441 6.139 16.6828H6.14425C7.2555 19.9955 10.353 22.4595 14.0053 22.4595C15.8918 22.4595 17.5123 21.9765 18.7688 21.1225H18.7635C19.4931 20.6392 20.1172 20.013 20.5981 19.2818C21.0791 18.5506 21.4069 17.7296 21.5618 16.8683H14V11.4783H27.2038V11.4765Z" fill="#EA4335"/>
</g>
<defs>
<clipPath id="clip0_42_491">
<rect width="28" height="28" fill="white"/>
</clipPath>
</defs>
</svg>
